<?xml version="1.0" standalone="no"?>
<!DOCTYPE svg PUBLIC "-//W3C//DTD SVG 20010904//EN"
 "http://www.w3.org/TR/2001/REC-SVG-20010904/DTD/svg10.dtd">
<svg version="1.0" xmlns="http://www.w3.org/2000/svg"
 width="200.000000pt" height="200.000000pt" viewBox="0 0 200.000000 200.000000"
 preserveAspectRatio="xMidYMid meet">
<metadata>
Created by potrace 1.11, written by Peter Selinger 2001-2013
</metadata>
<g transform="translate(0.000000,200.000000) scale(0.100000,-0.100000)"
fill="#000000" stroke="none">
<path d="M665 1742 l-270 -157 -1 -316 -1 -317 97 -56 c53 -31 101 -56 106
-56 7 0 10 114 10 306 -1 168 1 309 4 313 4 7 105 66 320 188 75 43 215 125
218 128 3 2 -205 126 -210 124 -2 0 -124 -71 -273 -157z"/>
<path d="M1005 1663 c-121 -68 -245 -139 -275 -155 -30 -17 -62 -36 -71 -41
-13 -8 -16 -31 -15 -138 0 -71 2 -129 3 -129 2 0 85 47 185 103 101 57 209
119 242 136 32 18 81 46 108 62 27 16 52 29 57 29 4 0 109 -57 232 -126 123
-69 257 -144 297 -166 l72 -39 0 129 0 130 -42 25 c-24 13 -68 38 -98 55 -30
16 -120 67 -200 112 -232 132 -247 140 -262 139 -7 0 -112 -57 -233 -126z"/>
<path d="M330 1546 c-19 -13 -64 -39 -100 -58 l-65 -36 -2 -319 -3 -320 33
-16 c35 -18 62 -33 282 -162 83 -48 169 -98 192 -111 l42 -24 73 42 c40 22 87
50 104 62 l31 21 -258 149 c-142 82 -264 153 -271 157 -10 6 -13 77 -14 319 0
170 -3 312 -5 314 -2 2 -20 -6 -39 -18z"/>
<path d="M1185 1460 c-38 -22 -85 -47 -102 -56 -18 -9 -33 -19 -33 -23 0 -3
124 -75 275 -160 246 -138 275 -157 276 -180 1 -14 2 -153 2 -308 1 -155 5
-285 9 -289 4 -3 20 2 35 12 28 19 109 65 151 86 l22 11 0 318 0 317 -268 151
c-147 82 -275 152 -282 155 -8 3 -46 -12 -85 -34z"/>
<path d="M847 1154 c-14 -14 -7 -35 11 -32 9 2 17 10 17 17 0 16 -18 25 -28
15z"/>
<path d="M1357 1153 c-2 -5 -4 -45 -3 -90 1 -91 -11 -114 -16 -30 l-3 52 -48
3 c-27 2 -55 -2 -63 -9 -10 -8 -14 -8 -14 0 0 15 -30 14 -31 -1 -5 -77 -4
-126 3 -140 17 -36 28 -16 28 51 0 67 1 69 28 72 67 10 72 4 72 -73 0 -51 3
-69 13 -66 6 3 13 14 15 26 2 12 6 22 10 22 4 0 7 -97 7 -215 l-1 -215 -47
-30 c-26 -16 -49 -30 -51 -30 -2 0 -65 -36 -141 -80 -76 -44 -139 -80 -141
-80 -1 0 -39 -22 -84 -49 l-81 -49 33 -19 c18 -11 65 -39 105 -62 l72 -41 263
151 c145 83 268 155 274 160 7 6 11 107 11 322 l0 313 -98 57 c-103 60 -105
61 -112 50z"/>
<path d="M659 1080 c0 -5 0 -39 0 -75 0 -85 -1 -82 16 -82 12 0 15 15 15 69
l0 68 35 0 c27 0 35 -4 35 -18 0 -10 7 -19 15 -19 21 0 20 53 -1 61 -25 10
-59 7 -72 -6 -9 -9 -12 -9 -12 0 0 14 -30 16 -31 2z"/>
<path d="M853 1078 c-15 -19 -11 -150 5 -156 14 -4 14 -7 17 91 2 75 -3 90
-22 65z"/>
<path d="M951 1071 c-11 -20 -9 -126 2 -137 4 -4 37 -8 72 -9 54 -2 68 1 75
16 14 25 12 123 -2 137 -7 7 -39 12 -75 12 -51 0 -64 -3 -72 -19z m125 -61
l-1 -55 -50 0 -50 0 0 50 c0 54 8 60 75 60 26 0 27 -2 26 -55z"/>
<path d="M189 740 c0 -17 0 -50 0 -75 0 -25 0 -67 0 -94 l1 -48 83 -48 c45
-27 100 -58 122 -71 22 -12 107 -61 188 -108 82 -47 150 -86 152 -86 2 0 99
55 217 123 117 68 239 138 271 156 31 18 57 38 58 44 1 22 4 237 3 237 -2 0
-443 -255 -487 -281 -26 -16 -54 -29 -61 -29 -8 0 -49 20 -90 45 -42 25 -162
94 -266 155 l-190 109 -1 -29z"/>
</g>
</svg>
